HIERARCHY
ROOT Hips
{
  OFFSET 0.0273292 -0.436096 0.279869
  CHANNELS 6 Xposition Yposition Zposition Zrotation Xrotation Yrotation
  JOINT LHipJoint
  {
    OFFSET 0 0 0
    CHANNELS 6 Xposition Yposition Zposition Zrotation Xrotation Yrotation
    JOINT LeftUpLeg
    {
      OFFSET 1.36306 -1.79463 0
      CHANNELS 6 Xposition Yposition Zposition Zrotation Xrotation Yrotation
      JOINT LeftLeg
      {
        OFFSET 2.44807 -6.72613 0.000295034
        CHANNELS 6 Xposition Yposition Zposition Zrotation Xrotation Yrotation
        JOINT LeftFoot
        {
          OFFSET 2.5622 -7.03959 3.59965e-05
          CHANNELS 6 Xposition Yposition Zposition Zrotation Xrotation Yrotation
          JOINT LeftToeBase
          {
            OFFSET 0.15764 -0.43311 2.32255
            CHANNELS 6 Xposition Yposition Zposition Zrotation Xrotation Yrotation
            End Site
            {
              OFFSET 0 0 0
            }
          }
        }
      }
    }
  }
  JOINT RHipJoint
  {
    OFFSET 0 0 0
    CHANNELS 6 Xposition Yposition Zposition Zrotation Xrotation Yrotation
    JOINT RightUpLeg
    {
      OFFSET -1.30552 -1.79463 0
      CHANNELS 6 Xposition Yposition Zposition Zrotation Xrotation Yrotation
      JOINT RightLeg
      {
        OFFSET -2.54234 -6.98562 -0.000396375
        CHANNELS 6 Xposition Yposition Zposition Zrotation Xrotation Yrotation
        JOINT RightFoot
        {
          OFFSET -2.56826 -7.05623 -4.47982e-05
          CHANNELS 6 Xposition Yposition Zposition Zrotation Xrotation Yrotation
          JOINT RightToeBase
          {
            OFFSET -0.16473 -0.45259 2.36315
            CHANNELS 6 Xposition Yposition Zposition Zrotation Xrotation Yrotation
            End Site
            {
              OFFSET 0 0 0
            }
          }
        }
      }
    }
  }
  JOINT LowerBack
  {
    OFFSET 0 0 0
    CHANNELS 6 Xposition Yposition Zposition Zrotation Xrotation Yrotation
    JOINT Spine
    {
      OFFSET 0.0282699 2.03559 0
      CHANNELS 6 Xposition Yposition Zposition Zrotation Xrotation Yrotation
      JOINT Spine1
      {
        OFFSET 0.05672 2.04885 -0.04275
        CHANNELS 6 Xposition Yposition Zposition Zrotation Xrotation Yrotation
        JOINT Neck
        {
          OFFSET 0 0 0
          CHANNELS 6 Xposition Yposition Zposition Zrotation Xrotation Yrotation
          JOINT Neck1
          {
            OFFSET -0.05417 1.74624 0.17202
            CHANNELS 6 Xposition Yposition Zposition Zrotation Xrotation Yrotation
            JOINT Head
            {
              OFFSET 0.10407 1.76136 -0.12397
              CHANNELS 6 Xposition Yposition Zposition Zrotation Xrotation Yrotation
              End Site
              {
                OFFSET 0 0 0
              }
            }
          }
        }
        JOINT LeftShoulder
        {
          OFFSET 0 0 0
          CHANNELS 6 Xposition Yposition Zposition Zrotation Xrotation Yrotation
          JOINT LeftArm
          {
            OFFSET 3.36241 1.20089 -0.311211
            CHANNELS 6 Xposition Yposition Zposition Zrotation Xrotation Yrotation
            JOINT LeftForeArm
            {
              OFFSET 4.983 0.000197398 0.000166057
              CHANNELS 6 Xposition Yposition Zposition Zrotation Xrotation Yrotation
              JOINT LeftHand
              {
                OFFSET 3.48356 0 1.87849e-05
                CHANNELS 6 Xposition Yposition Zposition Zrotation Xrotation Yrotation
                JOINT LeftFingerBase
                {
                  OFFSET 0 0 0
                  CHANNELS 6 Xposition Yposition Zposition Zrotation Xrotation Yrotation
                  JOINT LeftHandIndex1
                  {
                    OFFSET 0.71526 0 0
                    CHANNELS 6 Xposition Yposition Zposition Zrotation Xrotation Yrotation
                    End Site
                    {
                      OFFSET 0 0 0
                    }
                  }
                }
                JOINT LThumb
                {
                  OFFSET 0 0 0
                  CHANNELS 6 Xposition Yposition Zposition Zrotation Xrotation Yrotation
                  End Site
                  {
                    OFFSET 0 0 0
                  }
                }
              }
            }
          }
        }
        JOINT RightShoulder
        {
          OFFSET 0 0 0
          CHANNELS 6 Xposition Yposition Zposition Zrotation Xrotation Yrotation
          JOINT RightArm
          {
            OFFSET -3.1366 1.37405 -0.404651
            CHANNELS 6 Xposition Yposition Zposition Zrotation Xrotation Yrotation
            JOINT RightForeArm
            {
              OFFSET -5.2419 -5.8808e-05 -0.000165864
              CHANNELS 6 Xposition Yposition Zposition Zrotation Xrotation Yrotation
              JOINT RightHand
              {
                OFFSET -3.44417 0 -2.00002e-05
                CHANNELS 6 Xposition Yposition Zposition Zrotation Xrotation Yrotation
                JOINT RightFingerBase
                {
                  OFFSET 0 0 0
                  CHANNELS 6 Xposition Yposition Zposition Zrotation Xrotation Yrotation
                  JOINT RightHandIndex1
                  {
                    OFFSET -0.62253 0 0
                    CHANNELS 6 Xposition Yposition Zposition Zrotation Xrotation Yrotation
                    End Site
                    {
                      OFFSET 0 0 0
                    }
                  }
                }
                JOINT RThumb
                {
                  OFFSET 0 0 0
                  CHANNELS 6 Xposition Yposition Zposition Zrotation Xrotation Yrotation
                  End Site
                  {
                    OFFSET 0 0 0
                  }
                }
              }
            }
          }
        }
      }
    }
  }
}
MOTION
Frames:	6
Frame Time:	0.00833333
2.35352 1.92171 0.336695 -4.6404 0.0641979 -17.8962 0 0 0 -4.00675e-16 -2.48481e-17 -0 1.36306 -1.79463 5.90225e-08 -15.4782 -8.0329 9.65573 2.44809 -6.72613 -5.40071e-05 -3.25424 19.1814 7.76148 2.5622 -7.03959 -1.93983e-05 3.19654 -17.1134 10.3224 0.15764 -0.43311 2.32255 -3.18055e-15 -3.97569e-16 -0 0 0 0 -4.00675e-16 -2.48481e-17 -0 -1.30552 -1.79463 -1.06387e-08 20.1471 -16.617 -4.80495 -2.54244 -6.98559 0.000516065 7.58204 33.7366 -16.9702 -2.56826 -7.05622 4.54751e-05 4.2761 -6.58452 2.85553 -0.16473 -0.45259 2.36315 -5.01931e-15 -2.83268e-15 -0 0 0 0 -4.00675e-16 -2.48481e-17 -0 0.02827 2.03559 4.29406e-07 -4.9825 0.735192 1.77071 0.05672 2.04885 -0.04275 2.18663e-15 3.97569e-16 -3.18055e-15 0 0 0 2.98177e-16 0 -0 -0.05417 1.74624 0.17202 2.99037 26.6362 0.205652 0.10407 1.76136 -0.12397 -1.59028e-15 3.18055e-15 -3.18055e-15 0 0 0 2.98177e-16 0 -0 3.36241 1.20089 -0.31121 -77.1506 2.71963 4.3232 4.983 0.000188412 0.000168582 0.913279 0.386461 -14.1922 3.48356 4.97002e-06 -1.10889e-05 0.3159 3.41717 -2.43524 0 0 0 1.59028e-15 0 -0 0.71526 0 4.44089e-16 2.38542e-15 0 -1.59028e-15 0 0 0 1.59028e-15 0 -0 0 0 0 2.98177e-16 0 -0 -3.1366 1.37405 -0.404649 84.6822 23.7069 -10.3305 -5.2419 0.000238934 0.000108081 -0.707196 0.547021 20.6929 -3.44417 5.65471e-06 -8.56357e-06 2.63772 1.16727 -0.18382 0 0 0 2.5842e-15 0 7.95139e-16 -0.62253 0 -4.44089e-16 1.19271e-15 -1.59028e-15 -0 0 0 0 2.5842e-15 0 7.95139e-16 
2.35427 1.92953 0.324645 -4.63285 0.0592524 -17.6254 0 0 0 -9.93923e-16 4.22417e-16 -3.18055e-15 1.36306 -1.79463 5.90225e-08 -15.4925 -8.0018 9.65842 2.44809 -6.72613 -5.40071e-05 -3.18634 18.9466 7.64002 2.5622 -7.03959 -1.93983e-05 3.17815 -16.8574 10.1346 0.15764 -0.43311 2.32255 5.34234e-15 -8.94531e-16 1.59028e-15 0 0 0 -9.93923e-16 4.22417e-16 -3.18055e-15 -1.30552 -1.79463 -1.06387e-08 20.0766 -16.3788 -4.9086 -2.54244 -6.98559 0.000516065 6.13223 31.3627 -15.3731 -2.56826 -7.05622 4.54751e-05 3.83705 -7.32622 3.09912 -0.16473 -0.45259 2.36315 -5.96354e-16 -3.97569e-15 -3.18055e-15 0 0 0 -9.93923e-16 4.22417e-16 -3.18055e-15 0.02827 2.03559 4.29406e-07 -5.15783 0.693159 1.94941 0.05672 2.04885 -0.04275 -1.98785e-15 7.95139e-16 -0 0 0 0 -1.98785e-16 0 -0 -0.05417 1.74624 0.17202 3.01755 26.6503 0.142172 0.10407 1.76136 -0.12397 -7.95139e-16 0 -3.18055e-15 0 0 0 -1.98785e-16 0 -0 3.36241 1.20089 -0.31121 -77.0614 2.77488 5.07912 4.983 0.000188412 0.000168582 0.895378 0.405827 -15.0178 3.48356 4.97002e-06 -1.10889e-05 0.0430372 3.76938 -1.82773 0 0 0 7.95139e-16 3.18055e-15 -1.59028e-15 0.71526 -8.88178e-16 0 -7.95139e-16 6.36111e-15 -1.59028e-15 0 0 0 7.95139e-16 3.18055e-15 -1.59028e-15 0 0 0 -1.98785e-16 0 -0 -3.1366 1.37405 -0.404649 84.7336 23.7759 -10.3568 -5.2419 0.000238934 0.000108081 -0.711592 0.541789 20.4953 -3.44417 5.65471e-06 -8.56357e-06 2.74213 1.20388 -0.189945 0 0 0 3.97569e-15 0 -0 -0.62253 0 0 2.18663e-15 0 -1.59028e-15 0 0 0 3.97569e-15 0 -0 
2.35514 1.93619 0.312334 -4.63418 0.0600432 -17.3557 0 0 0 -7.29912e-16 0 -0 1.36306 -1.79463 5.90225e-08 -15.4911 -8.00405 9.6549 2.44809 -6.72613 -5.40071e-05 -3.12937 18.7699 7.53998 2.5622 -7.03959 -1.93983e-05 3.15926 -16.6247 9.93719 0.15764 -0.43311 2.32255 1.86361e-16 -2.98177e-16 -0 0 0 0 -7.29912e-16 0 -0 -1.30552 -1.79463 -1.06387e-08 20.0219 -16.2206 -4.96847 -2.54244 -6.98559 0.000516065 4.81729 29.1222 -13.9276 -2.56826 -7.05622 4.54751e-05 3.40145 -8.10428 3.34429 -0.16473 -0.45259 2.36315 -7.15625e-15 -3.18055e-15 -6.36111e-15 0 0 0 -7.29912e-16 0 -0 0.02827 2.03559 4.29406e-07 -5.3265 0.652448 2.12472 0.05672 2.04885 -0.04275 8.94531e-16 -7.95139e-16 6.36111e-15 0 0 0 7.95139e-16 -1.19271e-15 6.36111e-15 -0.05417 1.74624 0.17202 3.04488 26.6661 0.081588 0.10407 1.76136 -0.12397 2.64834e-31 -3.18055e-15 4.77083e-15 0 0 0 7.95139e-16 -1.19271e-15 6.36111e-15 3.36241 1.20089 -0.31121 -76.9668 2.8572 5.78033 4.983 0.000188412 0.000168582 0.881278 0.422386 -15.7111 3.48356 4.97002e-06 -1.10889e-05 -0.243744 4.115 -1.26133 0 0 0 -1.59028e-15 -6.36111e-15 -3.18055e-15 0.71526 0 4.44089e-16 -8.82781e-32 -3.18055e-15 -1.59028e-15 0 0 0 -1.59028e-15 -6.36111e-15 -3.18055e-15 0 0 0 7.95139e-16 -1.19271e-15 6.36111e-15 -3.1366 1.37405 -0.404649 84.7825 23.8457 -10.3767 -5.2419 0.000238934 0.000108081 -0.715876 0.536591 20.2979 -3.44417 5.65471e-06 -8.56357e-06 2.84257 1.23964 -0.1883 0 0 0 1.59028e-15 3.18055e-15 -0 -0.62253 -2.22045e-16 0 -1.59028e-15 1.59028e-15 -7.95139e-16 0 0 0 1.59028e-15 3.18055e-15 -0 
2.35617 1.94195 0.299688 -4.64188 0.0650576 -17.0872 0 0 0 -6.52262e-17 2.36057e-16 -0 1.36306 -1.79463 5.90225e-08 -15.4793 -8.01948 9.644 2.44809 -6.72613 -5.40071e-05 -3.07721 18.6372 7.45599 2.5622 -7.03959 -1.93983e-05 3.13967 -16.4094 9.73236 0.15764 -0.43311 2.32255 -8.19987e-16 -1.39149e-15 -1.59028e-15 0 0 0 -6.52262e-17 2.36057e-16 -0 -1.30552 -1.79463 -1.06387e-08 19.9758 -16.1297 -4.99895 -2.54244 -6.98559 0.000516065 3.60542 27.0094 -12.5968 -2.56826 -7.05622 4.54751e-05 2.97751 -8.90733 3.59094 -0.16473 -0.45259 2.36315 -1.98785e-15 -2.38542e-15 -3.18055e-15 0 0 0 -6.52262e-17 2.36057e-16 -0 0.02827 2.03559 4.29406e-07 -5.48884 0.612777 2.2982 0.05672 2.04885 -0.04275 2.98177e-16 -3.97569e-16 1.59028e-15 0 0 0 -0 -3.97569e-16 -0 -0.05417 1.74624 0.17202 3.07201 26.6839 0.0238527 0.10407 1.76136 -0.12397 -7.95139e-16 -3.18055e-15 -0 0 0 0 -0 -3.97569e-16 -0 3.36241 1.20089 -0.31121 -76.8723 2.96265 6.44894 4.983 0.000188412 0.000168582 0.86948 0.437168 -16.3147 3.48356 4.97002e-06 -1.10889e-05 -0.567217 4.46768 -0.713897 0 0 0 0 0 -3.18055e-15 0.71526 -8.88178e-16 2.22045e-16 7.95139e-16 0 -0 0 0 0 0 0 -3.18055e-15 0 0 0 -0 -3.97569e-16 -0 -3.1366 1.37405 -0.404649 84.8289 23.9167 -10.3913 -5.2419 0.000238934 0.000108081 -0.71998 0.531515 20.1037 -3.44417 5.65471e-06 -8.56357e-06 2.9401 1.2763 -0.176776 0 0 0 -1.78906e-15 -1.59028e-15 -7.95139e-16 -0.62253 2.22045e-16 0 -1.78906e-15 -1.59028e-15 -7.95139e-16 0 0 0 -1.78906e-15 -1.59028e-15 -7.95139e-16 
2.35703 1.94598 0.28661 -4.66235 0.0785402 -16.8258 0 0 0 -1.27346e-16 -2.85753e-16 -0 1.36306 -1.79463 5.90225e-08 -15.4459 -8.06111 9.62522 2.44809 -6.72613 -5.40071e-05 -3.02958 18.5537 7.39816 2.5622 -7.03959 -1.93983e-05 3.11414 -16.2236 9.51722 0.15764 -0.43311 2.32255 2.68359e-15 -2.98177e-16 -0 0 0 0 -1.27346e-16 -2.85753e-16 -0 -1.30552 -1.79463 -1.06387e-08 19.9319 -16.0883 -5.00997 -2.54244 -6.98559 0.000516065 2.57412 25.1137 -11.4398 -2.56826 -7.05622 4.54751e-05 2.65894 -9.67359 3.82961 -0.16473 -0.45259 2.36315 -7.95139e-16 -2.38542e-15 3.18055e-15 0 0 0 -1.27346e-16 -2.85753e-16 -0 0.02827 2.03559 4.29406e-07 -5.63348 0.573844 2.47629 0.05672 2.04885 -0.04275 -9.93923e-17 -3.97569e-16 1.59028e-15 0 0 0 -2.98177e-16 0 1.59028e-15 -0.05417 1.74624 0.17202 3.10102 26.7099 -0.033319 0.10407 1.76136 -0.12397 -0 0 4.77083e-15 0 0 0 -2.98177e-16 0 1.59028e-15 3.36241 1.20089 -0.31121 -76.7751 3.08809 7.07023 4.983 0.000188412 0.000168582 0.859967 0.449457 -16.8088 3.48356 4.97002e-06 -1.10889e-05 -0.894138 4.79862 -0.300705 0 0 0 1.59028e-15 3.18055e-15 -0 0.71526 0 4.44089e-16 -1.59028e-15 -3.18055e-15 -0 0 0 0 1.59028e-15 3.18055e-15 -0 0 0 0 -2.98177e-16 0 1.59028e-15 -3.1366 1.37405 -0.404649 84.8682 23.9942 -10.4023 -5.2419 0.000238934 0.000108081 -0.723069 0.527657 19.9556 -3.44417 5.65471e-06 -8.56357e-06 3.03507 1.32707 -0.145492 0 0 0 5.56597e-15 -3.18055e-15 -1.59028e-15 -0.62253 0 0 3.18055e-15 0 -0 0 0 0 5.56597e-15 -3.18055e-15 -1.59028e-15 
2.35739 1.94751 0.273003 -4.7021 0.104756 -16.5776 0 0 0 1.37286e-15 -1.36664e-16 -0 1.36306 -1.79463 5.90225e-08 -15.3797 -8.14195 9.59807 2.44809 -6.72613 -5.40071e-05 -2.98619 18.5247 7.37663 2.5622 -7.03959 -1.93983e-05 3.0773 -16.0795 9.28877 0.15764 -0.43311 2.32255 1.81391e-15 2.98177e-16 -1.59028e-15 0 0 0 1.37286e-15 -1.36664e-16 -0 -1.30552 -1.79463 -1.06387e-08 19.8837 -16.0784 -5.01144 -2.54244 -6.98559 0.000516065 1.78736 23.528 -10.5106 -2.56826 -7.05622 4.54751e-05 2.53792 -10.3414 4.05035 -0.16473 -0.45259 2.36315 -3.18055e-15 -1.59028e-15 -0 0 0 0 1.37286e-15 -1.36664e-16 -0 0.02827 2.03559 4.29406e-07 -5.74907 0.535345 2.66547 0.05672 2.04885 -0.04275 2.38542e-15 7.95139e-16 -0 0 0 0 3.77691e-15 7.95139e-16 1.59028e-15 -0.05417 1.74624 0.17202 3.13404 26.7497 -0.0922257 0.10407 1.76136 -0.12397 -0 0 1.59028e-15 0 0 0 3.77691e-15 7.95139e-16 1.59028e-15 3.36241 1.20089 -0.31121 -76.6723 3.23048 7.62946 4.983 0.000188412 0.000168582 0.852704 0.458547 -17.1737 3.48356 4.97002e-06 -1.10889e-05 -1.18795 5.0793 -0.137296 0 0 0 -3.53113e-31 -6.36111e-15 -3.18055e-15 0.71526 8.88178e-16 4.44089e-16 -7.95139e-16 0 -0 0 0 0 -3.53113e-31 -6.36111e-15 -3.18055e-15 0 0 0 3.77691e-15 7.95139e-16 1.59028e-15 -3.1366 1.37405 -0.404649 84.8954 24.0841 -10.411 -5.2419 0.000238934 0.000108081 -0.724288 0.526125 19.8967 -3.44417 5.65471e-06 -8.56357e-06 3.1277 1.40517 -0.0845653 0 0 0 2.98177e-15 0 -7.95139e-16 -0.62253 -2.22045e-16 0 -3.97569e-16 0 -7.95139e-16 0 0 0 2.98177e-15 0 -7.95139e-16 
